<?xml version="1.0" encoding="UTF-8"?>
<svg width="50px" height="50px" viewBox="0 0 50 50" version="1.1" xmlns="http://www.w3.org/2000/svg" xmlns:xlink="http://www.w3.org/1999/xlink">
    <!-- Generator: Sketch 45.2 (43514) - http://www.bohemiancoding.com/sketch -->
    <title>group_2copy_slice</title>
    <desc>Created with Sketch.</desc>
    <defs></defs>
    <g id="Page-1" stroke="none" stroke-width="1" fill="none" fill-rule="evenodd">
        <g id="Artboard" transform="translate(-611.000000, -29.000000)">
            <g id="Group-2-Copy" transform="translate(612.000000, 30.000000)">
                <circle id="Oval" stroke="#1DACFC" fill="#FFFFFF" cx="24" cy="24" r="24"></circle>
                <path d="M25.3939394,22.9393939 L25.3939394,11.8939394 C25.3939394,11.2189394 24.8416667,10.6666667 24.1666667,10.6666667 C23.4916667,10.6666667 22.9393939,11.2189394 22.9393939,11.8939394 L22.9393939,22.9393939 L11.8939394,22.9393939 C11.2189394,22.9393939 10.6666667,23.4916667 10.6666667,24.1666667 C10.6666667,24.8416667 11.2189394,25.3939394 11.8939394,25.3939394 L22.9393939,25.3939394 L22.9393939,36.4393939 C22.9393939,37.1143939 23.4916667,37.6666667 24.1666667,37.6666667 C24.8416667,37.6666667 25.3939394,37.1143939 25.3939394,36.4393939 L25.3939394,25.3939394 L36.4393939,25.3939394 C37.1143939,25.3939394 37.6666667,24.8416667 37.6666667,24.1666667 C37.6666667,23.4916667 37.1143939,22.9393939 36.4393939,22.9393939 L25.3939394,22.9393939 Z" id="Combined-Shape" fill="#1DACFC"></path>
            </g>
        </g>
    </g>
</svg>