<?xml version="1.0" encoding="UTF-8"?>
<svg width="44px" height="44px" viewBox="0 0 44 44" version="1.1" xmlns="http://www.w3.org/2000/svg" xmlns:xlink="http://www.w3.org/1999/xlink">
    <!-- Generator: Sketch 45.2 (43514) - http://www.bohemiancoding.com/sketch -->
    <title>Nav_Search</title>
    <desc>Created with Sketch.</desc>
    <defs></defs>
    <g id="v1.4客户" stroke="none" stroke-width="1" fill="none" fill-rule="evenodd">
        <g id="客户-copy" transform="translate(-38.000000, -62.000000)" fill="#FFFFFF">
            <g id="Nav-Bar">
                <path d="M70.0385908,91.2334232 C70.0595327,91.2549631 70.080011,91.2771554 70.1,91.3 L81.4,102.6 C82.2,103.4 82.2,104.7 81.4,105.4 C80.6,106.2 79.4,106.2 78.6,105.4 L67.3,94.1 C67.2787033,94.0787033 67.2579736,94.0570523 67.2378108,94.0350677 C64.1525618,96.5132107 60.2414797,98 56,98 C46.1,98 38,89.9 38,80 C38,70.1 46.1,62 56,62 C65.9,62 74,70.1 74,80 C74,84.2394694 72.5146198,88.1488542 70.0385908,91.2334232 Z M56,95 C64.3,95 71,88.3 71,80 C71,71.7 64.3,65 56,65 C47.7,65 41,71.7 41,80 C41,88.3 47.7,95 56,95 Z" id="Nav_Search"></path>
            </g>
        </g>
    </g>
</svg>